<svg width="24" height="24" viewBox="0 0 24 24" fill="none" xmlns="http://www.w3.org/2000/svg">
<path opacity="0.4" d="M5 14.2864C3.14864 15.1031 2 16.2412 2 17.5C2 19.9853 6.47715 22 12 22C17.5228 22 22 19.9853 22 17.5C22 16.2412 20.8514 15.1031 19 14.2864" stroke="black" stroke-width="2" stroke-linecap="round" stroke-linejoin="round"/>
<path d="M12 17C13.5 14 18 12.0637 18 8C18 4.68629 15.3137 2 12 2C8.68629 2 6 4.68629 6 8C6 12.0637 10.5 14 12 17Z" stroke="black" stroke-width="2" stroke-linecap="round" stroke-linejoin="round"/>
<path d="M12 9C12.5523 9 13 8.55228 13 8C13 7.44772 12.5523 7 12 7C11.4477 7 11 7.44772 11 8C11 8.55228 11.4477 9 12 9Z" stroke="black" stroke-width="2" stroke-linecap="round" stroke-linejoin="round"/>
</svg>
