<svg width="90" height="90" viewBox="0 0 90 90" fill="none" xmlns="http://www.w3.org/2000/svg">
<circle opacity="0.12" cx="45" cy="45" r="45" fill="#64C361"/>
<g clip-path="url(#clip0_4256_15729)">
<path fill-rule="evenodd" clip-rule="evenodd" d="M23.5 45C23.5 39.4305 25.7125 34.089 29.6508 30.1508C33.589 26.2125 38.9305 24 44.5 24C50.0695 24 55.411 26.2125 59.3492 30.1508C63.2875 34.089 65.5 39.4305 65.5 45C65.5 50.5695 63.2875 55.911 59.3492 59.8492C55.411 63.7875 50.0695 66 44.5 66C38.9305 66 33.589 63.7875 29.6508 59.8492C25.7125 55.911 23.5 50.5695 23.5 45ZM43.3016 53.988L55.392 38.8736L53.208 37.1264L42.8984 50.0092L35.596 43.9248L33.804 46.0752L43.3016 53.9908V53.988Z" fill="#64C361"/>
</g>
<defs>
<clipPath id="clip0_4256_15729">
<rect width="42" height="42" fill="white" transform="translate(23.5 24)"/>
</clipPath>
</defs>
</svg>
